<?xml version="1.0" standalone="no"?>
<!DOCTYPE svg PUBLIC "-//W3C//DTD SVG 20010904//EN"
 "http://www.w3.org/TR/2001/REC-SVG-20010904/DTD/svg10.dtd">
<svg version="1.0" xmlns="http://www.w3.org/2000/svg"
 width="320.000000pt" height="320.000000pt" viewBox="0 0 320.000000 320.000000"
 preserveAspectRatio="xMidYMid meet">
<metadata>
Created by potrace 1.11, written by Peter Selinger 2001-2013
</metadata>
<g transform="translate(0.000000,320.000000) scale(0.100000,-0.100000)"
fill="#000000" stroke="none">
<path d="M2650 2657 c-6 -6 -77 -15 -179 -22 -41 -3 -80 -10 -86 -15 -6 -5
-26 -8 -43 -5 -20 2 -32 -1 -32 -8 0 -8 -3 -9 -8 -2 -4 6 -27 10 -52 10 -38
-2 -45 -5 -50 -26 -6 -23 -6 -23 -20 -3 -15 21 -16 21 -125 10 -16 -2 -42 -4
-57 -5 -18 0 -28 -7 -28 -16 0 -8 -4 -15 -10 -15 -5 0 -10 6 -10 14 0 16 -7
15 -280 -10 -191 -17 -203 -20 -179 -35 9 -6 10 -9 2 -9 -6 0 -18 6 -25 13 -7
7 -22 12 -33 11 -207 -15 -215 -16 -232 -27 -6 -4 -14 -3 -17 2 -3 5 -15 7
-26 4 -15 -4 -18 -9 -10 -18 11 -13 8 -62 -4 -58 -26 8 -38 21 -26 28 8 5 5
11 -12 20 -28 14 -38 10 -38 -16 0 -10 -7 -19 -15 -19 -8 0 -15 5 -15 11 0 5
-5 7 -10 4 -12 -8 -42 14 -35 25 6 10 -39 4 -61 -8 -11 -6 -25 -7 -34 -2 -22
12 -50 7 -61 -11 -6 -10 -9 -11 -9 -1 0 9 -13 12 -41 10 -33 -2 -39 -5 -36
-20 6 -23 -9 -24 -21 -2 -9 16 -21 17 -160 4 -2 0 0 -4 3 -10 3 -5 -1 -10 -9
-10 -9 0 -16 5 -16 10 0 6 -4 10 -10 10 -5 0 -10 -7 -10 -15 0 -19 -16 -20
-23 -1 -6 16 -47 10 -59 -8 -6 -8 -10 -8 -15 0 -10 13 -52 11 -92 -6 -23 -9
-31 -18 -29 -33 2 -11 -3 -22 -11 -25 -8 -3 -11 0 -7 6 3 6 2 13 -2 16 -5 3
-17 -12 -26 -33 -18 -38 -18 -128 0 -256 5 -43 14 -156 17 -217 1 -24 7 -38
15 -38 9 0 10 -5 3 -17 -9 -18 -7 -120 4 -152 4 -13 15 -17 39 -16 28 0 35 -3
39 -22 6 -31 -10 -53 -23 -33 -8 12 -10 11 -10 -8 0 -19 4 -22 20 -17 11 3 21
3 21 -2 7 -40 5 -53 -7 -53 -8 0 -14 -4 -14 -10 0 -5 5 -10 11 -10 5 0 7 -5 3
-12 -5 -7 -1 -9 13 -6 16 4 19 1 15 -19 -3 -18 -1 -22 12 -17 19 7 20 0 5 -27
-10 -19 -12 -19 -28 -5 -22 20 -84 18 -76 -2 3 -7 5 -16 5 -18 0 -2 8 -4 18
-4 10 0 27 -7 38 -15 16 -12 17 -16 5 -24 -9 -5 -24 -6 -38 0 -25 9 -31 -3
-11 -25 10 -10 17 -10 37 0 25 13 41 11 41 -7 0 -5 -9 -9 -19 -9 -12 0 -18 -7
-17 -17 1 -13 -5 -17 -21 -16 -13 2 -23 0 -23 -3 0 -11 28 -33 34 -27 3 4 6
-1 6 -9 0 -11 -6 -14 -20 -11 -17 5 -19 1 -15 -28 3 -30 16 -184 18 -216 0
-15 13 -17 21 -4 4 5 0 12 -6 14 -7 3 -3 6 10 6 13 1 21 5 17 10 -3 5 4 12 15
16 11 3 20 13 20 21 0 8 5 12 10 9 8 -5 8 -11 1 -19 -16 -19 -1 -56 25 -67 13
-4 24 -13 24 -19 0 -15 -29 -12 -47 5 -8 8 -20 12 -26 8 -8 -5 -8 -8 1 -11 7
-2 12 -8 12 -13 0 -6 -4 -8 -9 -4 -5 3 -12 1 -16 -5 -3 -5 0 -10 7 -10 9 0 9
-3 -2 -10 -11 -7 -19 -5 -29 8 -12 15 -12 14 -6 -8 4 -14 17 -35 28 -48 18
-20 19 -24 7 -32 -11 -7 -17 -4 -22 9 -4 11 -12 22 -18 26 -21 13 -1 -49 22
-67 21 -15 21 -16 3 -15 -44 4 -5 -106 46 -134 30 -15 59 -21 104 -20 83 2
112 6 128 20 11 9 17 10 17 2 0 -7 15 -9 43 -7 23 3 50 5 60 5 10 1 17 9 17
20 0 26 23 44 38 29 9 -9 8 -16 -4 -29 -16 -17 -14 -18 37 -14 30 3 79 7 109
9 30 3 82 7 114 10 33 3 62 10 66 17 5 8 9 8 14 0 4 -6 21 -9 39 -6 18 3 63 7
101 9 38 3 72 10 76 16 5 8 14 9 26 3 11 -5 46 -7 79 -3 33 4 54 8 48 9 -7 0
-13 6 -13 11 0 16 34 7 42 -10 6 -13 7 -12 7 1 1 22 31 34 31 13 0 -13 12 -14
78 -8 42 3 86 7 97 7 11 1 25 13 31 25 7 15 14 20 18 13 4 -6 4 -11 1 -11 -3
0 0 -6 7 -14 7 -8 16 -12 20 -10 6 4 76 11 178 19 84 6 229 19 262 24 3 1 10
16 13 33 4 18 13 37 19 41 8 6 8 10 -1 14 -7 2 -13 11 -13 19 0 8 -4 14 -10
14 -5 0 -10 4 -10 8 0 4 16 8 35 9 19 1 35 -3 35 -8 0 -5 6 -9 13 -9 6 0 19
-4 27 -10 12 -7 12 -12 -4 -28 -9 -11 -30 -25 -45 -31 -15 -7 -27 -20 -28 -30
-1 -17 5 -19 50 -16 29 1 58 -2 65 -8 6 -5 12 -5 12 -1 0 5 21 9 48 9 57 -1
135 14 143 27 4 7 14 6 27 -1 50 -27 149 12 182 71 21 37 22 48 15 136 -4 54
-7 107 -6 120 1 16 -8 26 -27 34 -26 11 -26 12 -5 15 20 4 22 10 20 54 -1 27
-4 49 -7 49 -3 0 -5 30 -6 68 0 37 -4 103 -9 147 -7 75 -18 101 -37 89 -4 -3
-8 1 -8 9 0 8 8 14 18 13 9 0 16 4 15 10 -4 20 -14 127 -18 188 -2 34 -9 63
-17 68 -9 6 -10 10 -2 16 16 10 5 122 -12 129 -17 6 -18 24 -1 21 7 -2 11 6
10 22 -5 54 -11 75 -22 72 -6 -1 -11 5 -11 13 0 8 5 15 10 15 16 0 12 70 -5
87 -11 11 -13 19 -5 28 8 9 0 23 -30 53 -45 45 -54 78 -17 69 12 -4 29 -1 37
4 12 9 10 10 -7 6 -13 -3 -23 -1 -23 4 0 5 9 9 20 9 13 0 20 7 20 19 0 15 -5
18 -22 13 -22 -5 -22 -4 -7 14 9 10 15 30 13 44 -5 31 -58 82 -78 74 -10 -4
-16 3 -18 21 -2 15 -5 25 -8 22z m-135 -67 c3 -5 1 -10 -4 -10 -6 0 -11 5 -11
10 0 6 2 10 4 10 3 0 8 -4 11 -10z m-25 -30 c0 -11 -7 -20 -15 -20 -18 0 -19
6 -2 25 16 19 17 18 17 -5z m135 -30 c-4 -11 -2 -20 4 -20 6 0 11 5 11 10 0 6
7 10 15 10 8 0 24 6 35 12 16 11 22 9 34 -7 17 -23 10 -41 -9 -25 -21 18 -51
-19 -46 -57 3 -18 -18 -16 -25 2 -4 8 -1 22 6 30 7 9 10 19 6 22 -4 4 -11 1
-17 -7 -8 -13 -10 -13 -19 0 -13 20 -13 50 1 50 6 0 8 -9 4 -20z m-345 -4 c0
-8 -8 -24 -19 -37 -16 -20 -21 -21 -35 -10 -20 16 -21 31 -2 31 7 0 19 7 26
15 16 19 30 19 30 1z m-410 -21 c0 -26 -14 -33 -25 -15 -9 14 1 40 15 40 5 0
10 -11 10 -25z m290 15 c0 -5 -4 -10 -10 -10 -5 0 -10 5 -10 10 0 6 5 10 10
10 6 0 10 -4 10 -10z m-846 -21 c-3 -5 -10 -7 -15 -3 -5 3 -7 10 -3 15 3 5 10
7 15 3 5 -3 7 -10 3 -15z m773 -15 c-9 -9 -28 6 -21 18 4 6 10 6 17 -1 6 -6 8
-13 4 -17z m293 6 c0 -11 -4 -20 -9 -20 -11 0 -22 26 -14 34 12 12 23 5 23
-14z m77 -26 c-9 -9 -28 6 -21 18 4 6 10 6 17 -1 6 -6 8 -13 4 -17z m-857 -14
c0 -5 -4 -10 -10 -10 -5 0 -10 5 -10 10 0 6 5 10 10 10 6 0 10 -4 10 -10z
m800 -11 c0 5 14 9 30 9 17 -1 30 -4 30 -8 0 -4 20 -5 45 -3 43 4 45 3 60 -33
8 -20 15 -49 15 -65 0 -16 5 -29 10 -29 6 0 10 -7 10 -15 0 -8 -5 -15 -11 -15
-5 0 -8 -4 -5 -8 3 -5 6 -25 8 -44 1 -25 6 -34 15 -31 18 7 16 -15 -3 -34 -18
-18 -3 -34 26 -26 10 3 20 -2 24 -13 9 -23 2 -28 -23 -15 -11 6 -22 8 -24 4
-3 -6 -2 -68 2 -81 1 -1 10 2 21 8 12 7 20 7 20 1 0 -5 -9 -13 -20 -16 -24 -8
-27 -25 -4 -25 8 0 12 -5 9 -10 -4 -6 -11 -8 -16 -4 -16 10 -2 -45 17 -63 9
-10 24 -18 32 -18 22 0 27 -24 7 -32 -11 -4 -21 0 -27 10 -13 24 -28 21 -28
-5 0 -19 2 -20 10 -8 8 12 10 12 10 1 0 -10 8 -12 30 -7 34 6 39 -3 12 -21
-11 -6 -24 -8 -32 -3 -21 13 -27 5 -22 -35 4 -30 8 -36 23 -32 11 3 19 1 19
-5 0 -5 -9 -12 -19 -15 -21 -5 -21 -4 -6 -121 6 -47 11 -62 21 -58 8 3 14 1
14 -5 0 -5 -7 -12 -15 -16 -12 -4 -14 -16 -10 -52 9 -90 17 -177 20 -226 1
-27 4 -50 5 -50 1 0 3 -18 4 -40 1 -34 5 -39 21 -36 19 3 19 2 2 -17 -14 -15
-18 -33 -16 -66 2 -26 -2 -51 -9 -58 -7 -7 -12 -19 -13 -28 -1 -8 -4 -4 -8 10
-8 28 -23 29 -131 16 -50 -6 -115 -13 -195 -21 -16 -2 -33 -4 -37 -4 -5 -1 -8
-8 -8 -16 0 -22 -21 -18 -27 5 -3 11 -10 17 -15 14 -6 -4 -26 -8 -46 -10 -21
-2 -66 -6 -102 -9 -95 -9 -104 -10 -118 -19 -6 -4 -12 -3 -12 1 0 14 -127 -3
-154 -21 -14 -9 -34 -25 -45 -37 l-19 -21 -17 26 c-10 14 -22 23 -27 20 -6 -4
-14 -1 -18 6 -6 10 -17 11 -41 4 -31 -9 -32 -10 -15 -27 14 -13 21 -15 32 -6
14 11 34 5 34 -12 0 -5 -7 -9 -15 -9 -8 0 -15 -4 -15 -10 0 -5 -5 -10 -11 -10
-15 0 -59 42 -59 58 0 6 -4 12 -9 12 -5 0 -8 -16 -5 -34 3 -26 -1 -38 -13 -45
-16 -9 -16 -12 -3 -21 12 -8 10 -9 -8 -7 -13 2 -28 10 -33 18 -6 10 -9 10 -9
2 0 -7 -8 -13 -17 -13 -16 0 -16 -1 0 -12 11 -9 14 -18 8 -27 -10 -16 -31 -6
-31 15 0 11 -9 15 -32 12 -32 -3 -33 -2 -30 32 5 51 19 63 43 39 24 -24 44
-20 45 9 1 19 -4 22 -37 22 -20 0 -40 -6 -42 -12 -4 -10 -8 -10 -15 1 -9 12
-13 12 -26 2 -10 -9 -16 -10 -16 -3 0 6 -7 9 -15 6 -8 -4 -12 -10 -9 -15 8
-13 -20 -11 -34 3 -9 9 -12 8 -12 -5 0 -9 -5 -17 -11 -17 -6 0 -9 7 -5 15 3 8
1 15 -5 15 -6 0 -13 -10 -17 -22 l-5 -22 -9 23 c-4 13 -13 19 -19 15 -8 -5 -7
-9 2 -14 10 -7 10 -11 0 -24 -18 -21 -24 -20 -36 7 -7 15 -18 21 -35 20 -116
-8 -125 -10 -128 -26 -5 -24 -22 -21 -22 4 0 11 -3 18 -8 15 -4 -2 -39 -7 -77
-10 -43 -4 -74 -12 -81 -21 -9 -12 -13 -12 -29 3 -17 16 -17 16 -12 -1 4 -11
1 -17 -8 -17 -8 0 -15 6 -15 14 0 15 -51 10 -61 -7 -4 -5 -17 -6 -30 -1 -13 4
-28 7 -32 6 -5 -2 -26 -4 -48 -6 -34 -4 -39 -1 -39 16 0 14 -5 18 -15 14 -8
-3 -15 -1 -15 5 0 5 7 12 15 15 11 5 13 18 9 57 -3 29 -6 62 -7 75 0 12 -7 22
-14 22 -7 0 -13 5 -13 10 0 6 7 10 16 10 8 0 12 5 9 11 -4 5 -8 36 -10 67 -5
108 -17 172 -31 172 -8 0 -14 5 -14 10 0 6 7 10 15 10 14 0 20 13 15 35 -7 30
-18 133 -25 244 -6 88 -10 105 -26 96 -5 -4 -9 1 -9 9 0 9 5 16 10 16 6 0 10
5 10 11 0 5 -4 8 -9 4 -5 -3 -12 -1 -16 5 -3 6 1 13 9 16 21 8 20 50 0 58 -15
6 -15 8 -2 24 11 11 13 24 8 37 -5 12 -9 14 -9 6 -1 -8 -4 -11 -7 -8 -4 4 -2
12 3 19 6 7 9 29 8 48 -2 29 -6 35 -23 34 -12 0 -22 3 -22 8 0 7 15 12 32 9 5
0 8 6 8 15 0 8 -4 12 -10 9 -5 -3 -10 -1 -10 4 0 6 5 11 10 11 6 0 10 5 10 10
0 6 -7 10 -15 10 -8 0 -15 4 -15 10 0 5 8 6 17 3 13 -5 15 -2 10 11 -4 10 -7
29 -7 42 0 15 -6 24 -15 24 -8 0 -15 5 -15 10 0 6 5 10 12 10 6 0 9 3 5 6 -3
3 3 20 13 36 10 17 16 37 13 44 -3 8 -1 14 3 15 5 0 18 2 29 4 11 1 54 5 95 9
41 4 86 9 100 11 14 3 61 8 104 10 46 3 83 10 87 17 6 9 11 9 23 -1 8 -7 21
-9 28 -5 7 4 51 9 98 11 85 2 161 8 234 18 21 3 45 13 52 22 12 17 13 17 14 1
0 -14 8 -16 43 -13 23 3 60 5 82 6 49 2 75 14 75 37 0 14 2 15 9 2 6 -8 7 -18
5 -22 -3 -4 23 -6 58 -3 35 3 92 7 128 10 36 2 94 7 130 11 36 3 81 7 100 8
26 1 38 7 45 24 12 26 27 30 23 5 -3 -16 5 -18 52 -16 30 1 75 4 100 7 25 3
67 7 95 10 27 2 51 9 53 15 2 7 14 5 33 -4 16 -9 29 -11 29 -6z m-1290 -13 c0
-3 -4 -8 -10 -11 -5 -3 -10 -1 -10 4 0 6 5 11 10 11 6 0 10 -2 10 -4z m107
-30 c-4 -9 -11 -16 -17 -16 -11 0 -14 33 -3 44 11 10 26 -11 20 -28z m-147 14
c0 -5 -4 -10 -10 -10 -5 0 -10 5 -10 10 0 6 5 10 10 10 6 0 10 -4 10 -10z
m1585 1 c-3 -6 4 -15 16 -21 30 -17 10 -34 -24 -21 -26 10 -35 30 -20 44 10
11 35 8 28 -2z m-1935 -11 c0 -5 -4 -10 -10 -10 -5 0 -10 5 -10 10 0 6 5 10
10 10 6 0 10 -4 10 -10z m571 -13 c-13 -13 -26 -3 -16 12 3 6 11 8 17 5 6 -4
6 -10 -1 -17z m-921 -3 c0 -3 -7 -12 -15 -21 -20 -19 -32 -10 -14 11 14 15 29
21 29 10z m453 -16 c8 -28 3 -32 -22 -19 -12 7 -18 17 -15 26 9 22 31 18 37
-7z m445 4 c6 -18 -15 -14 -22 4 -4 10 -1 14 6 12 6 -2 14 -10 16 -16z m-330
-10 c2 -7 -3 -12 -12 -12 -9 0 -16 7 -16 16 0 17 22 14 28 -4z m-618 -7 c0 -8
-7 -15 -15 -15 -8 0 -15 7 -15 15 0 8 7 15 15 15 8 0 15 -7 15 -15z m458 -3
c6 -18 -15 -14 -22 4 -4 10 -1 14 6 12 6 -2 14 -10 16 -16z m-320 -31 c3 -8
-1 -12 -9 -9 -7 2 -15 10 -17 17 -3 8 1 12 9 9 7 -2 15 -10 17 -17z m-148 -64
c0 -10 4 -16 9 -13 5 4 11 0 14 -6 3 -9 10 -7 21 7 18 23 20 17 7 -19 -8 -18
-15 -23 -31 -19 -16 4 -19 2 -14 -12 5 -13 3 -16 -7 -13 -17 6 -34 80 -25 105
6 15 8 15 16 3 6 -8 10 -23 10 -33z m2340 23 c0 -5 -9 -10 -20 -10 -11 0 -20
5 -20 10 0 6 9 10 20 10 11 0 20 -4 20 -10z m130 -66 c0 -8 -5 -12 -10 -9 -6
4 -8 11 -5 16 9 14 15 11 15 -7z m-2390 -175 c7 -11 9 -23 6 -26 -8 -9 -36 17
-36 33 0 21 18 17 30 -7z m40 7 c0 -3 -4 -8 -10 -11 -5 -3 -10 -1 -10 4 0 6 5
11 10 11 6 0 10 -2 10 -4z m2264 -11 c3 -9 0 -15 -9 -15 -8 0 -15 7 -15 15 0
8 4 15 9 15 5 0 11 -7 15 -15z m56 -35 c0 -5 -4 -10 -10 -10 -5 0 -10 5 -10
10 0 6 5 10 10 10 6 0 10 -4 10 -10z m-2400 -24 c0 -2 -7 -6 -15 -10 -8 -3
-15 -1 -15 4 0 6 7 10 15 10 8 0 15 -2 15 -4z m20 -41 c0 -13 -45 -27 -55 -17
-3 3 2 13 11 23 17 19 44 15 44 -6z m81 15 c16 0 10 -30 -7 -37 -17 -6 -34 12
-34 36 0 8 6 11 16 7 9 -3 20 -6 25 -6z m2329 -25 c0 -8 -6 -15 -14 -15 -17 0
-28 14 -19 24 12 12 33 6 33 -9z m-35 -83 c0 -11 7 -16 21 -15 17 2 22 -3 22
-22 0 -18 -6 -25 -20 -25 -10 0 -21 6 -24 14 -3 8 -12 12 -20 9 -17 -6 -18 6
-4 43 11 28 25 25 25 -4z m-2385 -11 c0 -11 -26 -22 -34 -14 -12 12 -5 23 14
23 11 0 20 -4 20 -9z m2333 -30 c-3 -12 -11 -17 -23 -14 -17 4 -17 6 -2 23 19
22 32 18 25 -9z m21 -42 c-3 -5 -10 -7 -15 -3 -5 3 -7 10 -3 15 3 5 10 7 15 3
5 -3 7 -10 3 -15z m17 -32 c-13 -13 -26 -3 -16 12 3 6 11 8 17 5 6 -4 6 -10
-1 -17z m59 -45 c0 -11 -37 -32 -44 -25 -11 11 -6 21 12 26 28 8 32 7 32 -1z
m-2340 -52 c0 -5 -4 -10 -10 -10 -5 0 -10 5 -10 10 0 6 5 10 10 10 6 0 10 -4
10 -10z m2260 -10 c0 -5 -5 -10 -11 -10 -5 0 -7 5 -4 10 3 6 8 10 11 10 2 0 4
-4 4 -10z m47 -235 c3 -9 2 -19 -1 -23 -8 -8 -38 10 -44 26 -6 18 38 14 45 -3z
m-2284 -29 c5 -13 -30 -52 -39 -43 -6 6 18 57 27 57 4 0 9 -6 12 -14z m2327
-116 c0 -5 -4 -10 -10 -10 -5 0 -10 5 -10 10 0 6 5 10 10 10 6 0 10 -4 10 -10z
m-2270 -19 c0 -6 -4 -13 -10 -16 -5 -3 -10 1 -10 9 0 9 5 16 10 16 6 0 10 -4
10 -9z m-90 -5 c0 -3 -4 -8 -10 -11 -5 -3 -10 -1 -10 4 0 6 5 11 10 11 6 0 10
-2 10 -4z m-10 -120 c0 -24 -15 -26 -28 -5 -11 16 -9 19 8 19 11 0 20 -6 20
-14z m2155 -116 c3 -5 1 -10 -4 -10 -6 0 -11 5 -11 10 0 6 2 10 4 10 3 0 8 -4
11 -10z m-125 -31 c0 -6 -4 -7 -10 -4 -5 3 -10 11 -10 16 0 6 5 7 10 4 6 -3
10 -11 10 -16z m-1980 -7 c0 -4 -5 -13 -12 -20 -9 -9 -8 -12 6 -12 22 0 18
-28 -6 -44 -31 -19 -44 7 -24 48 15 33 36 48 36 28z m2050 -5 c0 -14 -19 -37
-31 -37 -14 0 -19 34 -7 42 20 12 38 10 38 -5z m242 -10 c4 -7 8 -22 8 -34 0
-31 -28 -30 -40 1 -13 36 -27 40 -45 12 -13 -20 -21 -23 -38 -17 -28 10 -26
19 10 43 30 20 91 17 105 -5z m-468 -2 c3 -8 1 -15 -4 -15 -6 0 -10 -10 -10
-21 0 -17 -4 -20 -22 -15 -13 3 -29 6 -35 6 -8 0 -13 12 -13 28 1 24 2 25 14
10 12 -16 13 -16 26 3 17 23 36 25 44 4z m320 -6 c-3 -5 -10 -7 -15 -3 -5 3
-7 10 -3 15 3 5 10 7 15 3 5 -3 7 -10 3 -15z m-444 -30 c0 -20 -15 -26 -25 -9
-9 15 3 43 15 35 5 -3 10 -15 10 -26z m-550 -50 c0 -6 -4 -7 -10 -4 -5 3 -10
11 -10 16 0 6 5 7 10 4 6 -3 10 -11 10 -16z m1100 11 c0 -5 -5 -10 -11 -10 -5
0 -7 5 -4 10 3 6 8 10 11 10 2 0 4 -4 4 -10z m-2279 -13 c-1 -12 -15 -9 -19 4
-3 6 1 10 8 8 6 -3 11 -8 11 -12z m1459 3 c0 -5 -4 -10 -10 -10 -5 0 -10 5
-10 10 0 6 5 10 10 10 6 0 10 -4 10 -10z m646 -17 c-7 -7 -26 7 -26 19 0 6 6
6 15 -2 9 -7 13 -15 11 -17z m-1452 1 c11 -30 6 -37 -14 -19 -11 10 -17 22
-14 26 8 14 21 11 28 -7z m516 -8 c0 -2 3 -12 6 -20 5 -12 1 -15 -12 -13 -11
1 -20 6 -21 10 -6 17 -2 27 12 27 8 0 15 -2 15 -4z m-1140 -31 c0 -8 -5 -15
-11 -15 -6 0 -17 -6 -25 -14 -12 -13 -12 -15 4 -19 10 -3 5 -5 -12 -6 -16 0
-26 2 -23 6 4 3 0 15 -9 24 -18 20 -16 22 31 32 37 8 45 7 45 -8z m520 -4 c0
-5 -9 -11 -20 -14 -17 -4 -18 -2 -9 14 9 18 29 18 29 0z m104 -27 c9 -34 5
-37 -23 -18 -17 13 -20 19 -10 30 17 21 26 17 33 -12z m339 7 c4 -17 2 -18
-14 -8 -22 14 -25 27 -5 27 7 0 16 -9 19 -19z m-220 -6 c8 -18 -11 -31 -25
-17 -11 11 -3 32 12 32 4 0 10 -7 13 -15z m-608 -35 c-3 -42 -12 -47 -26 -17
-9 21 -9 30 1 42 17 21 28 11 25 -25z m443 21 c3 -8 -1 -12 -9 -9 -7 2 -15 10
-17 17 -3 8 1 12 9 9 7 -2 15 -10 17 -17z m-330 -34 c2 -12 -3 -17 -17 -17
-23 0 -24 1 -15 25 8 19 28 15 32 -8z m-258 -2 c-14 -17 -40 -20 -40 -6 0 8
18 16 44 20 5 0 3 -6 -4 -14z"/>
<path d="M2055 2278 c-89 -19 -163 -86 -192 -176 -11 -31 -18 -63 -17 -69 1
-7 2 -20 3 -29 0 -8 5 -13 10 -9 5 3 12 1 16 -5 3 -6 -1 -13 -10 -16 -14 -6
-15 -19 -10 -88 4 -44 9 -92 11 -106 6 -38 17 -162 15 -187 0 -14 5 -23 14
-23 10 0 12 6 8 18 -6 15 -5 15 11 3 9 -8 15 -20 12 -26 -2 -7 1 -18 7 -25 10
-10 8 -11 -8 -6 -43 16 -44 15 -31 -84 9 -77 17 -110 35 -154 18 -42 51 -79
51 -57 0 6 5 11 11 11 6 0 8 -8 4 -19 -4 -15 6 -24 54 -49 52 -26 68 -30 128
-28 81 3 136 20 181 54 30 23 46 52 20 36 -9 -5 -9 -2 1 9 7 9 19 17 26 17 28
0 44 75 41 188 -5 158 -3 155 -87 149 -38 -3 -76 -10 -83 -17 -11 -9 -13 -34
-10 -113 4 -95 3 -104 -18 -129 -55 -65 -156 -29 -160 57 -1 22 -3 44 -6 48
-2 5 -6 41 -9 80 -6 87 -10 122 -13 122 -1 0 -4 36 -6 79 -2 44 -9 83 -15 87
-8 4 -8 9 -1 13 6 4 9 23 6 44 -2 20 -7 73 -9 118 -2 44 -7 89 -11 99 -6 15
-4 17 18 12 16 -4 30 -2 36 6 16 19 74 19 97 -1 30 -25 47 -74 49 -140 3 -81
17 -100 75 -96 96 7 101 10 102 62 2 58 1 69 -5 107 -3 17 -7 39 -9 50 -8 54
-83 155 -114 155 -7 0 -16 6 -19 13 -3 8 -13 15 -22 16 -45 6 -145 5 -177 -1z
m-1 -43 c16 -12 17 -17 6 -30 -12 -15 -14 -15 -22 -1 -5 9 -18 16 -28 16 -22
0 -27 16 -7 23 20 9 31 7 51 -8z m-64 -29 c0 -7 -9 -21 -20 -31 -23 -21 -26
-11 -8 27 13 26 28 28 28 4z m35 -36 c-3 -5 -13 -10 -21 -10 -8 0 -14 5 -14
10 0 6 9 10 21 10 11 0 17 -4 14 -10z m273 -8 c3 -9 -2 -13 -14 -10 -9 1 -19
9 -22 16 -3 9 2 13 14 10 9 -1 19 -9 22 -16z m-338 -201 c0 -6 -4 -13 -10 -16
-5 -3 -10 1 -10 9 0 9 5 16 10 16 6 0 10 -4 10 -9z m35 -41 c3 -5 -1 -10 -9
-10 -9 0 -16 5 -16 10 0 6 4 10 9 10 6 0 13 -4 16 -10z m379 -345 c3 -8 12
-15 21 -15 8 0 15 -7 15 -15 0 -8 -5 -15 -11 -15 -6 0 -9 -6 -6 -14 3 -8 -1
-20 -9 -26 -8 -7 -14 -19 -14 -26 0 -8 -9 -14 -20 -14 -19 0 -20 4 -14 38 4
20 11 42 16 49 5 7 7 21 3 33 -7 23 10 28 19 5z m16 -194 c0 -26 -10 -51 -21
-51 -4 0 -6 6 -3 14 3 8 0 17 -6 21 -8 5 -8 11 1 21 16 20 29 17 29 -5z m-425
-61 c3 -5 1 -10 -4 -10 -6 0 -11 5 -11 10 0 6 2 10 4 10 3 0 8 -4 11 -10z m55
-60 c0 -5 -2 -10 -4 -10 -3 0 -8 5 -11 10 -3 6 -1 10 4 10 6 0 11 -4 11 -10z"/>
<path d="M1416 2213 c-44 -15 -94 -49 -121 -82 -45 -56 -84 -207 -49 -194 8 3
14 -1 14 -10 0 -8 -5 -17 -10 -19 -15 -5 -13 -74 6 -203 7 -47 10 -86 13 -162
1 -32 21 -48 21 -18 0 8 5 15 10 15 6 0 10 -6 10 -12 0 -7 3 -24 7 -37 5 -19
3 -22 -8 -15 -27 17 -36 12 -34 -20 8 -116 41 -241 71 -263 9 -6 23 -9 32 -6
14 4 14 3 3 -5 -20 -14 -10 -24 55 -57 48 -25 69 -29 125 -28 80 2 153 25 193
59 23 20 26 28 15 34 -10 7 -8 11 12 18 44 17 54 53 52 188 -2 153 -6 162 -70
157 -118 -10 -115 -7 -108 -129 6 -102 6 -103 -22 -133 -35 -38 -71 -45 -111
-21 -33 20 -61 60 -42 60 7 0 8 6 1 18 -5 9 -12 53 -15 97 -10 121 -16 159
-28 166 -6 4 -7 9 0 13 5 3 8 18 6 33 -2 16 -5 42 -5 58 -1 17 -6 36 -12 43
-8 10 -7 16 1 21 6 4 10 16 8 26 -2 11 -7 51 -11 90 -3 38 -8 71 -10 74 -2 2
1 13 6 24 8 14 8 22 -1 27 -8 5 -10 15 -6 26 6 15 9 16 15 5 7 -11 13 -11 32
3 30 21 79 20 105 -2 30 -25 44 -66 44 -128 0 -49 13 -90 33 -105 10 -7 127 7
137 18 14 14 14 84 0 163 -26 153 -117 233 -257 228 -39 -1 -87 -8 -107 -15z
m28 -38 c16 -12 17 -18 7 -28 -10 -10 -15 -8 -25 6 -8 10 -20 15 -30 11 -9 -3
-16 -2 -16 3 0 26 35 30 64 8z m-75 -46 c-12 -23 -26 -32 -33 -20 -3 5 1 14 9
21 8 7 15 20 15 29 0 13 2 14 9 2 6 -9 6 -22 0 -32z m41 -14 c0 -8 -7 -15 -15
-15 -16 0 -20 12 -8 23 11 12 23 8 23 -8z m278 -12 c6 -19 -25 -16 -32 3 -4
11 -1 14 11 12 9 -2 18 -9 21 -15z m-342 -210 c-10 -10 -19 5 -10 18 6 11 8
11 12 0 2 -7 1 -15 -2 -18z m34 -33 c0 -5 -4 -10 -10 -10 -5 0 -10 5 -10 10 0
6 5 10 10 10 6 0 10 -4 10 -10z m384 -346 c3 -8 10 -12 16 -9 13 8 26 -25 13
-34 -5 -3 -15 -21 -22 -38 -9 -21 -20 -33 -33 -33 -16 0 -18 5 -12 38 4 20 11
42 15 48 5 6 7 19 3 28 -3 9 -2 16 4 16 5 0 13 -7 16 -16z m16 -198 c0 -13 -7
-29 -15 -36 -13 -11 -14 -10 -10 3 4 8 2 18 -4 21 -14 9 -2 36 15 36 8 0 14
-10 14 -24z m-420 -56 c0 -5 -4 -10 -10 -10 -5 0 -10 5 -10 10 0 6 5 10 10 10
6 0 10 -4 10 -10z m50 -50 c0 -5 -4 -10 -10 -10 -5 0 -10 5 -10 10 0 6 5 10
10 10 6 0 10 -4 10 -10z"/>
<path d="M870 2176 c-3 -2 -18 -6 -35 -8 -16 -2 -43 -11 -60 -20 -35 -19 -95
-81 -95 -98 0 -6 -7 -25 -16 -43 -48 -91 -5 -239 101 -350 31 -31 73 -68 94
-81 93 -59 201 -181 201 -228 0 -7 7 -26 15 -41 14 -27 13 -29 -20 -61 -67
-66 -150 -54 -179 26 -8 24 -17 65 -20 92 -3 27 -7 51 -10 53 -8 8 -68 8 -112
0 -33 -5 -43 -12 -48 -31 -3 -13 -4 -30 -1 -38 3 -7 7 -31 9 -53 10 -109 86
-212 169 -231 53 -13 167 -15 167 -3 0 6 7 8 16 5 9 -3 20 -4 24 -1 14 9 0 34
-16 28 -8 -3 -14 0 -14 6 0 6 -7 11 -15 11 -8 0 -15 5 -15 10 0 6 6 10 14 10
8 0 22 3 32 7 13 5 16 3 11 -10 -7 -20 6 -22 36 -6 16 9 22 9 25 0 2 -6 9 -11
16 -11 16 0 56 42 56 58 0 7 4 12 9 12 11 0 18 20 26 70 22 133 -15 231 -133
349 -40 40 -75 71 -78 68 -2 -2 -21 12 -42 32 -20 20 -51 48 -67 62 -83 74
-108 139 -80 212 5 12 2 17 -10 17 -9 0 -13 5 -9 11 4 8 9 8 17 0 8 -8 15 -7
26 3 19 17 58 22 89 12 24 -8 45 -38 49 -71 2 -11 5 -29 7 -40 3 -11 5 -28 5
-37 2 -41 52 -53 137 -34 31 7 31 7 27 64 -2 31 -9 73 -15 92 -6 19 -9 35 -7
35 8 0 -45 80 -66 100 -35 33 -87 52 -150 54 -34 1 -63 0 -65 -3z m-55 -87 c7
-33 3 -45 -14 -34 -13 8 -15 65 -2 65 5 0 12 -14 16 -31z m275 -139 c26 -26
16 -50 -21 -50 -24 0 -29 4 -29 23 0 19 16 47 27 47 2 0 12 -9 23 -20z m130
-554 c0 -3 -4 -8 -10 -11 -5 -3 -10 -1 -10 4 0 6 5 11 10 11 6 0 10 -2 10 -4z
m-30 -62 c0 -8 -4 -12 -10 -9 -5 3 -10 10 -10 16 0 5 5 9 10 9 6 0 10 -7 10
-16z m-432 -32 c2 -7 -3 -12 -12 -12 -9 0 -16 7 -16 16 0 17 22 14 28 -4z m95
-96 c9 -7 17 -18 17 -25 0 -6 -8 -11 -17 -11 -15 0 -16 -2 -3 -10 11 -7 12
-12 3 -21 -9 -9 -18 -8 -37 5 -30 19 -34 50 -8 65 22 13 23 13 45 -3z m277
-15 c0 -5 -9 -11 -20 -14 -13 -3 -20 0 -20 9 0 8 9 14 20 14 11 0 20 -4 20 -9z
m-60 -21 c0 -5 -4 -10 -9 -10 -6 0 -13 5 -16 10 -3 6 1 10 9 10 9 0 16 -4 16
-10z m-79 -20 c5 0 9 -4 9 -10 0 -5 -9 -10 -20 -10 -11 0 -20 -4 -20 -10 0
-13 -27 -13 -35 1 -9 13 26 40 43 34 8 -3 18 -5 23 -5z"/>
<path d="M1528 898 c2 -10 8 -20 12 -23 5 -3 6 4 3 15 -5 20 11 28 20 10 3 -6
4 -5 3 2 -1 7 -12 13 -23 14 -15 1 -19 -4 -15 -18z"/>
<path d="M1010 2500 c0 -5 5 -10 10 -10 6 0 10 5 10 10 0 6 -4 10 -10 10 -5 0
-10 -4 -10 -10z"/>
<path d="M2750 2399 c0 -5 -4 -7 -10 -4 -18 11 -10 -11 10 -30 25 -23 33 -15
21 19 -11 27 -21 34 -21 15z"/>
<path d="M318 1614 c-4 -5 -5 -19 -3 -30 2 -10 4 -22 4 -25 1 -11 41 -18 41
-8 0 5 -4 9 -9 9 -4 0 -12 15 -17 32 -6 18 -13 28 -16 22z"/>
<path d="M325 1520 c-8 -13 -1 -24 14 -19 6 3 7 10 2 18 -6 10 -10 10 -16 1z"/>
<path d="M320 1481 c0 -6 4 -12 10 -16 13 -8 61 5 54 16 -3 5 -13 5 -24 -1
-24 -13 -33 -13 -25 0 3 6 1 10 -4 10 -6 0 -11 -4 -11 -9z"/>
<path d="M375 970 c3 -5 8 -10 11 -10 2 0 4 5 4 10 0 6 -5 10 -11 10 -5 0 -7
-4 -4 -10z"/>
</g>
</svg>
